# xmcd CD database file
# Copyright (C) 1993-1998 Ti Kan
#
# Track frame offsets:
# 150
# 30667
# 48412
# 75187
# 107272
# 126335
# 152707
# 179722
# 202575
# 235797
# 263162
# 282312
# 298882
# 319435
#
# Disc length: 4667 seconds
# Revision: 0
# Processed by: cddbd v1.4b41PL1 Copyright (c) Steve Scherf et al.
# Submitted via: CDSpectrumPro v3.3.331
#
DISCID=c012390e
DTITLE=Various Artist - The Knowledge.Com Website Sampler
DYEAR=1900
DGENRE=
TTITLE0=Boom Boom Satellites - 4 A Moment of Silence
TTITLE1=808 State - Pacific:707
TTITLE2=Midfield General - Bergkamp
TTITLE3=The Freestylers - Ruffneck
TTITLE4=Death in Vegas - Dirt
TTITLE5=Rasmus - Peaktime
TTITLE6=Monkey Mafia - Retreat Wicked Man
TTITLE7=Billy Goats Gruff - Watch Ya Back
TTITLE8=Cut and Paste - Watch This Sound
TTITLE9=Lionrock - Electric Hairdo
TTITLE10=Space Raiders - Glam Raid
TTITLE11=Dub Pistols - Westway
TTITLE12=Req - Vocoder Break Rock
TTITLE13=Top Dog - Here We Go
EXTD=
EXTT0=
EXTT1=
EXTT2=
EXTT3=
EXTT4=
EXTT5=
EXTT6=
EXTT7=
EXTT8=
EXTT9=
EXTT10=
EXTT11=
EXTT12=
EXTT13=
PLAYORDER=
